<svg baseProfile="full" xmlns="http://www.w3.org/2000/svg" height="31" width="30"><path fill="rgb( 51, 51, 51 )" d="M29.687 26.568c0 .933-.364 1.811-1.024 2.471-.661.66-1.538 1.024-2.472 1.024-.933 0-1.81-.364-2.471-1.024l-5.989-5.989c-1.663.85-3.541 1.339-5.537 1.339-6.735 0-12.194-5.459-12.194-12.194 0-6.735 5.459-12.195 12.194-12.195 6.735 0 12.195 5.46 12.195 12.195 0 2.194-.587 4.247-1.602 6.026l5.876 5.876c.66.66 1.024 1.537 1.024 2.471zm-17.491-23.631c-5.116 0-9.263 4.148-9.263 9.263 0 5.116 4.147 9.263 9.263 9.263s9.263-4.147 9.263-9.263c0-5.115-4.147-9.263-9.263-9.263z"/></svg>